<?xml version="1.0" encoding="UTF-8" standalone="no"?>
<!-- Created with Inkscape (http://www.inkscape.org/) -->

<svg
   width="3897.0251"
   height="1020.3728"
   viewBox="0 0 1031.0876 269.97363"
   version="1.1"
   id="svg1"
   xml:space="preserve"
   xmlns:xlink="http://www.w3.org/1999/xlink"
   xmlns="http://www.w3.org/2000/svg"
   xmlns:svg="http://www.w3.org/2000/svg"
   xmlns:rdf="http://www.w3.org/1999/02/22-rdf-syntax-ns#"
   xmlns:cc="http://creativecommons.org/ns#"
   xmlns:dc="http://purl.org/dc/elements/1.1/">
  <title
   id="title4">BushiWeb logo</title>
  
  <defs
   id="defs1"><rect
     x="1760"
     y="292.64801"
     width="3370.2051"
     height="720.81287"
     id="rect8" /></defs>
  
  
  
  
  
  <metadata
   id="metadata4">
    <rdf:RDF>
      <cc:Work
   rdf:about="">
        <dc:title>BushiWeb logo</dc:title>
        <dc:date>15/04/2024</dc:date>
        <dc:creator>
          <cc:Agent>
            <dc:title>Emeric Francisod</dc:title>
          </cc:Agent>
        </dc:creator>
      </cc:Work>
    </rdf:RDF>
  </metadata>
<g
   id="g25"
   transform="translate(-38.163774,-6.7451172)"
   style="display:inline">
    
  <g
   id="g9"><g
     id="g8"><path
       style="color:#000000;display:inline;fill:#ffffff;-inkscape-stroke:none"
       d="m 130.95359,142.04924 c 5.9808,20.68852 22.19578,55.01421 37.79025,70.902 2.21043,-1.79108 4.38025,-3.40236 6.52347,-4.84044 -20.94906,-21.80289 -33.38739,-38.33634 -44.31372,-66.06156 z"
       id="path16"
       transform="translate(-1.0833333e-6)" /><g
       id="g21"
       style="display:inline;fill:#ffffff"
       transform="translate(-1.0833333e-6)"><path
         style="opacity:0.992;fill:#ffffff;fill-rule:nonzero;stroke:none;stroke-width:6.92573;stroke-dasharray:none;stroke-opacity:1"
         id="path17"
         d="m 211.6876,57.603482 c 2.06047,8.598439 1.16489,17.361974 -2.15844,25.072566 -3.44511,8.010412 -9.4084,14.777401 -16.52016,19.176622 -8.10036,5.02588 -17.20633,6.75739 -25.08189,6.24864 -7.99779,-0.51027 -14.44668,-3.22833 -18.62872,-5.57803 -4.21936,-2.37067 -6.31883,-4.296247 -6.31883,-4.296247 0,0 1.74182,2.244627 5.68323,5.259317 3.87727,2.96566 10.24476,6.74675 18.8254,8.24137 8.47361,1.46963 18.81825,0.55598 28.52283,-4.65251 8.52837,-4.59007 15.78096,-12.169003 19.87826,-21.657889 3.90378,-9.057299 4.9509,-19.339295 2.53338,-29.427774 z" /><path
         style="color:#000000;fill:#ffffff;-inkscape-stroke:none"
         d="m 172.91504,6.7451172 c 22.89274,13.0426238 44.07854,27.1530298 68.22857,45.7044918 1.85411,1.424282 1.45567,2.629596 -0.88176,2.681523 L 93.421742,58.393281 c -2.337429,0.05193 -2.336982,0.102885 0.001,0.113094 57.427647,0.250752 141.544247,0.327767 171.150767,2.989065 2.32834,0.209293 2.61294,-0.579068 0.6375,-1.829627 C 229.44429,37.023567 194.09863,17.707135 172.91504,6.7451172 Z"
         id="path18" /><path
         style="color:#000000;display:inline;fill:#ffffff;-inkscape-stroke:none"
         d="m 172.91406,45.552735 c 20.93229,0.710937 40.55731,-0.212225 62.79688,2.132812 v -4.265625 c -21.19536,0.974007 -41.86459,1.421881 -62.79688,2.132813 z"
         id="path19"
         transform="translate(-1.0833333e-6)" /><path
         id="path20"
         style="color:#000000;fill:#ffffff;-inkscape-stroke:none"
         d="m 215.34909,31.174898 c -14.78968,0.480419 -28.29009,0.960837 -42.43514,1.441256 15.16381,-0.0011 28.0866,-0.425503 44.00986,2.01606 z" /><path
         id="path21"
         style="color:#000000;fill:#ffffff;-inkscape-stroke:none"
         d="m 194.13384,18.960657 c -7.86717,0.141014 -14.14671,0.480533 -21.21989,0.720886 7.59216,0.254642 15.10794,-0.02539 22.77648,0.763926 z m 39.87302,2.795695 1.70429,0.05788 v -0.05788 z" /></g><g
       id="g24"
       style="fill:#f66c70;fill-opacity:1">
      <path
   id="path22"
   style="opacity:0.992;vector-effect:non-scaling-stroke;fill:#f66c70;fill-opacity:1;stroke:none;stroke-width:0.264583;stroke-linejoin:round;stroke-dasharray:none;-inkscape-stroke:hairline"
   d="m 255.43775,143.95297 c -4.1418,6.7702 -3.70804,15.47644 1.20132,21.90311 l 32.39468,42.40674 a 2.7708543,2.7708543 89.999997 0 1 0,3.36408 l -32.39468,42.40675 c -4.90936,6.42668 -5.34312,15.13291 -1.20132,21.90311 0.60975,0.99669 1.7766,0.98837 2.48624,0.0594 l 49.17222,-64.36926 a 2.7708386,2.7708386 89.999998 0 0 0,-3.36408 l -49.17222,-64.36925 c -0.70964,-0.92897 -1.87649,-0.93729 -2.48624,0.0594 z" />
      <path
   id="path23"
   style="display:inline;vector-effect:non-scaling-stroke;fill:#f66c70;fill-opacity:1;fill-rule:nonzero;stroke:none;stroke-width:0.264583;stroke-linecap:butt;stroke-linejoin:miter;stroke-dasharray:none;stroke-opacity:1;-inkscape-stroke:hairline"
   d="m 204.63324,144.01206 -67.67627,109.49965 c -2e-4,3.4e-4 -3.2e-4,7.1e-4 -5.1e-4,0.001 -4.3265,7.19432 -3.56598,16.26144 1.69147,22.61082 0.74519,0.89996 1.93318,0.7485 2.54777,-0.2459 l 67.67626,-109.49966 c 2e-4,-3.3e-4 3.2e-4,-7e-4 5.2e-4,-0.001 4.32649,-7.19431 3.56596,-16.26144 -1.69147,-22.61082 -0.7452,-0.89996 -1.43495,-1.55463 -1.43495,-1.55462 z" />
      
      <use
   x="0"
   y="0"
   xlink:href="#path22"
   id="use46"
   transform="matrix(-1,0,0,1,345.82894,4.7666667e-6)"
   style="display:inline;fill:#f66c70;fill-opacity:1" /><circle
   style="display:none;opacity:0.992;vector-effect:non-scaling-stroke;fill:#f66c70;fill-opacity:1;stroke-width:0.264583;stroke-linejoin:round;stroke-dasharray:none;-inkscape-stroke:hairline"
   id="circle23"
   cx="253.28465"
   cy="112.89679"
   r="19.614819" />
      <path
   id="path24"
   style="display:none;opacity:0.992;vector-effect:non-scaling-stroke;fill:#f66c70;fill-opacity:1;stroke-width:0.262904;stroke-linejoin:round;-inkscape-stroke:hairline"
   d="m 186.30834,95.197522 v 15.991788 c 6.52701,6.35221 7.82029,16.36161 3.126,24.16648 h 16.78699 V 95.197522 Z" />
    </g></g><text
     xml:space="preserve"
     transform="matrix(0.26458333,0,0,0.26458333,-93.644414,-23.32791)"
     id="text8"
     style="font-weight:bold;font-size:533.333px;line-height:1.25;font-family:'Kaisei HarunoUmi';-inkscape-font-specification:'Kaisei HarunoUmi Bold';letter-spacing:10px;white-space:pre;shape-inside:url(#rect8);display:inline;fill:#f66c70;fill-opacity:1"><tspan
       x="1760"
       y="828.64811"
       id="tspan3">Bushi<tspan
   dx="29.999954"
   style="letter-spacing:-20px"
   id="tspan1">W</tspan><tspan
   dx="-30"
   id="tspan2">eb</tspan></tspan></text></g></g></svg>
